<?xml version="1.0" encoding="utf-8"?>
<!-- Generator: Adobe Illustrator 24.0.0, SVG Export Plug-In . SVG Version: 6.00 Build 0)  -->
<svg version="1.1" id="レイヤー_1" xmlns="http://www.w3.org/2000/svg" xmlns:xlink="http://www.w3.org/1999/xlink" x="0px"
	 y="0px" viewBox="0 0 156 64" style="enable-background:new 0 0 156 64;" xml:space="preserve">
<style type="text/css">
	.st0{display:none;}
	.st1{display:inline;}
	.st2{fill:none;}
	.st3{fill:#424242;}
	.st4{fill:#007CC3;}
	.st5{fill:#FFFFFF;}
	.st6{display:inline;fill:none;stroke:#D5CC1C;stroke-miterlimit:10;}
	.st7{display:inline;fill:none;stroke:#A99C4D;stroke-miterlimit:10;}
	.st8{display:inline;fill:#F8B62D;}
	.st9{display:inline;fill:#E1971C;}
	.st10{fill:#E1AD28;}
	.st11{fill:#E36617;}
	.st12{fill:#1D95D4;}
	.st13{fill:#147BAD;}
	.st14{fill:#AED049;}
	.st15{fill:#AED049;stroke:#555555;stroke-width:13;stroke-linecap:round;stroke-miterlimit:10;}
	.st16{fill:#E1AD28;stroke:#555555;stroke-width:13;stroke-linecap:round;stroke-miterlimit:10;}
</style>
<g id="決定" class="st0">
	<g class="st1">
		<path class="st2" d="M136.9,28.6c-8.3,0-11.9,6.4-12.6,11.4h23.8C148.2,35.3,145.9,28.6,136.9,28.6z"/>
		<path class="st3" d="M20.5,27.5v32.3h4.6V27.7C24.5,27.9,23.8,28,23,28C22,28,21.2,27.8,20.5,27.5z"/>
		<path class="st3" d="M48.6,40.9c-5.3-1.9-7.9-3.3-7.9-6.7c0-3,2.6-5.6,7.5-5.6c3.8,0,6.4,1.2,7.8,2l1.7-3
			c-2.1-1.2-5.3-2.1-8.9-2.1c-7.8,0-12.5,4.3-12.5,9.2c0,4,3.6,7.1,10.1,9.2c5.6,1.9,8.1,3.8,8.1,7.3c0,3.4-2.9,6.1-8.9,6.1
			c-3.5,0-6.8-1.2-8.9-2.3l-1.6,3.1c2.7,1.4,6.3,2.3,10.2,2.3c8,0,13.6-3.6,13.6-9.7C58.9,45.8,55.1,43.1,48.6,40.9z"/>
		<path class="st3" d="M85.9,28.7c4.2,0,7.2,1.1,9,1.9l1.4-3.1c-1.5-0.8-5.2-2-10.1-2c-12.1,0-20.5,7.4-20.5,17.9
			c0,10.2,7.6,17.1,19,17.1c5.5,0,9.5-1.4,11.3-2.1l-1-3c-2.1,0.8-5,1.9-9.5,1.9c-8.8,0-15.1-5.6-15.1-14.2
			C70.4,35.5,75.7,28.7,85.9,28.7z"/>
		<rect x="105.2" y="10.4" class="st3" width="4.6" height="49.5"/>
		<path class="st3" d="M152.8,40.8c-0.1-5.2-2.7-15.2-15.5-15.2c-10.4,0-17.7,7.2-17.7,18.2c0,9.9,7,16.9,18.6,16.9
			c6.6,0,10.6-1.3,12.4-2.1l-1.1-2.9c-2.3,0.9-5.3,1.9-10.7,1.9c-7.8,0-14.6-4-14.6-14.4h28.5C152.7,42.3,152.8,41.7,152.8,40.8z
			 M124.3,40.1c0.7-5,4.3-11.4,12.6-11.4c8.9,0,11.3,6.6,11.2,11.4H124.3z"/>
	</g>
	<g class="st1">
		<ellipse class="st4" cx="22.7" cy="13.9" rx="8.7" ry="8.7"/>
		<ellipse class="st5" cx="22.7" cy="13.9" rx="5.8" ry="5.8"/>
		<path class="st4" d="M7.6,32.1C7,32.7,5.8,32.5,5,31.7l0,0c-0.8-0.8-1-2-0.4-2.6l8.3-8.3c0.6-0.6,1.7-0.4,2.6,0.4l0,0
			c0.8,0.8,1,2,0.4,2.6L7.6,32.1z"/>
	</g>
</g>
<g id="レイヤー_3" class="st0">
	<circle class="st6" cx="47.6" cy="42.8" r="17.6"/>
	<circle class="st6" cx="84.4" cy="42.3" r="17.6"/>
	<circle class="st6" cx="135.3" cy="42.3" r="17.6"/>
	<line class="st7" x1="23" y1="12" x2="139.5" y2="12"/>
	<line class="st7" x1="23" y1="24.7" x2="139.5" y2="24.7"/>
	<line class="st7" x1="6.5" y1="59.8" x2="148.8" y2="59.8"/>
	<rect x="61.6" y="24.5" class="st8" width="5.3" height="35.5"/>
	<rect x="26.1" y="24.5" class="st9" width="6.1" height="35.5"/>
	<rect x="100.2" y="24.5" class="st9" width="6.1" height="35.5"/>
	<rect x="111.4" y="24.5" class="st9" width="6.1" height="35.5"/>
</g>
<g>
	<path class="st10" d="M42.9,27.6c0,0-0.1,0-0.1,0C42.9,27.6,42.9,27.6,42.9,27.6C43,27.7,43,27.6,42.9,27.6z"/>
	<path class="st10" d="M41.1,27c0.3,0.1,0.6,0.2,0.9,0.3C41.7,27.2,41.4,27.1,41.1,27z"/>
	<path class="st10" d="M41,27C41.1,27,41.1,27,41,27C41.1,27,41.1,27,41,27z"/>
	<path class="st10" d="M45.8,20.8C45.8,20.8,45.8,20.8,45.8,20.8c-5.1-2.1-10.7-2.2-15.7-0.2c-0.3,0.1-0.5,0.2-0.7,0.4
		C34.4,18.8,40.3,18.6,45.8,20.8z"/>
	<path class="st10" d="M42,27.3c0.3,0.1,0.6,0.2,0.8,0.3C42.6,27.5,42.3,27.4,42,27.3z"/>
	<path class="st10" d="M43,27.7C43,27.7,43,27.7,43,27.7C43,27.7,43.1,27.7,43,27.7C43.1,27.7,43.1,27.7,43,27.7z"/>
	<path class="st10" d="M57.3,32.7c-2-5.2-6-9.5-11.5-11.8c-5.5-2.3-11.4-2-16.5,0.2c-4.8,2.1-8.8,6-11,11.2c0,0,0,0,0,0l6.8,2.8
		c0,0,0,0,0,0c2.6-6.3,9.4-9.6,15.8-8c0,0,0.1,0,0.1,0c0.3,0.1,0.6,0.2,0.9,0.3c0.3,0.1,0.6,0.2,0.8,0.3c0,0,0.1,0,0.1,0
		c0,0,0,0,0,0c0,0,0,0,0,0c0,0,0.1,0,0.1,0c0.3,0.1,0.5,0.2,0.8,0.4c0.3,0.1,0.5,0.3,0.8,0.4c0,0,0.1,0,0.1,0
		c2.4,1.4,4.3,3.6,5.5,6.2c0.8,1.9,3,2.7,4.9,1.9C56.8,36,57.6,34.3,57.3,32.7z"/>
	<path class="st10" d="M50.3,45.5c-2.6,6.3-9.4,9.6-15.8,8c0,0-0.1,0-0.1,0c-0.3-0.1-0.6-0.2-0.9-0.3c-0.3-0.1-0.6-0.2-0.8-0.3
		c0,0-0.1,0-0.1,0c0,0,0,0,0,0c0,0,0,0,0,0c0,0-0.1,0-0.1,0c-0.3-0.1-0.5-0.2-0.8-0.4c-0.3-0.1-0.5-0.3-0.8-0.4c0,0-0.1,0-0.1,0
		c-2.4-1.4-4.3-3.6-5.5-6.2c-0.8-1.9-3-2.7-4.9-1.9c-1.6,0.7-2.5,2.4-2.1,4.1c2,5.2,6,9.5,11.5,11.8c5.5,2.3,11.4,2,16.5-0.2
		c4.8-2.1,8.8-6,11-11.2L50.3,45.5z"/>
	<path class="st11" d="M52,50.4L20.5,37.4c-2-0.8-3-3.2-2.2-5.2c0.8-2,3.2-3,5.2-2.2L55,43.1c2,0.8,3,3.2,2.2,5.2
		C56.3,50.3,54,51.3,52,50.4z"/>
</g>
<path class="st12" d="M107.6,61.3c-2.2,0-4-1.8-4-4V6.9c0-2.2,1.8-4,4-4s4,1.8,4,4v50.4C111.6,59.5,109.8,61.3,107.6,61.3z"/>
<circle class="st13" cx="9.4" cy="10" r="7"/>
<g>
	<path class="st14" d="M83.4,61.3c-11.6,0-21-9.4-21-21c0-11.6,9.4-21,21-21c5.5,0,10.6,2.1,14.6,5.9c1.5,1.4,1.5,3.8,0.1,5.2
		c-1.4,1.5-3.8,1.5-5.2,0.1c-2.6-2.5-5.9-3.8-9.5-3.8c-7.5,0-13.7,6.1-13.7,13.7s6.1,13.7,13.7,13.7c3.5,0,6.9-1.4,9.5-3.8
		c1.5-1.4,3.8-1.4,5.2,0.1c1.4,1.5,1.4,3.8-0.1,5.2C94,59.2,88.9,61.3,83.4,61.3z"/>
	<path class="st15" d="M95.4,27.7"/>
</g>
<path class="st11" d="M127.7,48.3l-0.3-0.4c-1.3-1.4-1.2-3.7,0.2-5l19-17.6c1.4-1.3,3.7-1.2,5,0.2l0.3,0.4c1.3,1.4,1.2,3.7-0.2,5
	l-19,17.6C131.2,49.8,129,49.7,127.7,48.3z"/>
<g>
	<path class="st10" d="M137.4,61.3c-11.6,0-21-9.4-21-21c0-11.6,9.4-21,21-21c5.5,0,10.6,2.1,14.6,5.9c1.5,1.4,1.5,3.8,0.1,5.2
		c-1.4,1.5-3.8,1.5-5.2,0.1c-2.6-2.5-5.9-3.8-9.5-3.8c-7.5,0-13.7,6.1-13.7,13.7s6.1,13.7,13.7,13.7c3.5,0,6.9-1.4,9.5-3.8
		c1.5-1.4,3.8-1.4,5.2,0.1c1.4,1.5,1.4,3.8-0.1,5.2C148,59.2,142.9,61.3,137.4,61.3z"/>
	<path class="st16" d="M149.4,27.7"/>
</g>
<path class="st12" d="M9.4,61.3c-2.2,0-4-1.8-4-4V22.9c0-2.2,1.8-4,4-4s4,1.8,4,4v34.5C13.4,59.5,11.6,61.3,9.4,61.3z"/>
<path class="st13" d="M107.6,61.3c-2.2,0-4-1.8-4-4v-7.7c0-2.2,1.8-4,4-4s4,1.8,4,4v7.7C111.6,59.5,109.8,61.3,107.6,61.3z"/>
</svg>
